<!--?xml version="1.0" encoding="utf-8"?-->
<!-- Generator: Adobe Illustrator 18.1.1, SVG Export Plug-In . SVG Version: 6.00 Build 0)  -->

<svg version="1.1" id="_x32_" xmlns="http://www.w3.org/2000/svg" xmlns:xlink="http://www.w3.org/1999/xlink" x="0px" y="0px" viewBox="0 0 512 512" style="width: 256px; height: 256px; opacity: 1;" xml:space="preserve">
<style type="text/css">
	.st0{fill:#4B4B4B;}
</style>
<g>
	<path class="st0" d="M493.138,216.296c-28.288-31.443-44.004-75.448-44.004-75.448s-15.717,44.005-44.014,75.448
		c0,0,12.965,6.675,20.044,3.135c0,0-7.079,27.124-38.906,62.885c28.288,7.849,49.506-5.116,49.506-5.116v38.906h10.224h6.282
		h10.233V277.2c0,0,21.209,12.965,49.497,5.116c-31.828-35.761-38.888-62.885-38.888-62.885
		C480.172,222.971,493.138,216.296,493.138,216.296z" style="fill: rgb(75, 75, 75);"></path>
	<path class="st0" d="M324.611,316.666c-137.717-18.578-165.813-22.951-112.675-57.291c39.3-25.4,125.934-44.152,170.755-58.85
		h-51.138V14.144h-24.616v186.38h-16.583c-64.453,12.489-121.267,23.382-165.465,43.408c9.024,17.817,21.934,39.732,38.164,57.759
		l24.437,27.161l-31.8,16.376c2.238,3.86,4.97,8.152,7.95,12.626c73.741,18.679,138.542,25.546,82.718,56.374
		c-69.908,38.613-116.829,65.388-158.055,83.627H401.47c31.479-23.896,86.432-68.644,95.281-96.014
		C509.268,363.128,468.096,336.032,324.611,316.666z" style="fill: rgb(75, 75, 75);"></path>
	<path class="st0" d="M101.369,401.511c0,0,28.206,17.24,65.819,6.805c-42.317-47.554-51.716-83.608-51.716-83.608
		c9.399,4.703,26.638-4.173,26.638-4.173c-37.613-41.804-58.51-100.315-58.51-100.315s-20.898,58.511-58.52,100.315
		c0,0,17.238,8.876,26.647,4.173c0,0-9.408,36.054-51.726,83.608c37.613,10.435,65.828-6.805,65.828-6.805v51.726h13.59h8.353
		h13.599V401.511z" style="fill: rgb(75, 75, 75);"></path>
	<path class="st0" d="M462.677,104.171c0.756-1.394,0.673-3.136-0.22-4.475l-24.653-36.972c-0.962-1.458-0.962-3.365,0-4.833
		l24.653-36.962c0.894-1.348,0.976-3.072,0.22-4.484c-0.771-1.412-2.247-2.302-3.852-2.302H343.862v92.346h114.963
		C460.43,106.49,461.902,105.582,462.677,104.171z" style="fill: rgb(75, 75, 75);"></path>
</g>
</svg>
